<svg xmlns="http://www.w3.org/2000/svg" width="57.256" height="58.173" viewBox="0 0 57.256 58.173">
  <g id="Graphic-5" transform="matrix(0.848, 0.53, -0.53, 0.848, 20.79, -6.059)">
    <path id="Path_1309" data-name="Path 1309" d="M5.042.021A.9.9,0,0,1,4.8.055a1.255,1.255,0,0,0-.47.1.16.16,0,0,1-.085.021,1.343,1.343,0,0,0-.395.172.222.222,0,0,1-.094.031.643.643,0,0,0-.282.085.827.827,0,0,1-.122.075A1.018,1.018,0,0,0,3.1.7a.255.255,0,0,1-.12.066.141.141,0,0,0-.085.047.147.147,0,0,1-.066.047c-.021,0-.042.016-.183.153a.228.228,0,0,1-.087.059c-.014,0-.045.033-.063.073a.555.555,0,0,1-.146.141,1.019,1.019,0,0,0-.2.179.527.527,0,0,1-.136.129.124.124,0,0,0-.061.059,1.249,1.249,0,0,1-.235.3.134.134,0,0,0-.054.068.3.3,0,0,1-.059.094.233.233,0,0,0-.059.1.349.349,0,0,1-.089.12.561.561,0,0,0-.122.186c-.035.106-.136.27-.167.27s-.092.127-.092.179a.247.247,0,0,1-.056.106.651.651,0,0,0-.1.195.531.531,0,0,1-.085.169.142.142,0,0,0-.045.1.774.774,0,0,1-.08.221A1.28,1.28,0,0,0,.614,4a.255.255,0,0,1-.061.134.168.168,0,0,0-.045.111.537.537,0,0,1-.056.181.779.779,0,0,0-.073.228,1.2,1.2,0,0,1-.059.219.676.676,0,0,0-.042.211.8.8,0,0,1-.049.23.726.726,0,0,0-.049.228c0,.056-.012.11-.026.117a.342.342,0,0,0-.021.16,1.32,1.32,0,0,1-.023.263.93.93,0,0,0-.021.2.673.673,0,0,1-.012.155,2.21,2.21,0,0,0-.028.235c0,.089-.016.246-.023.35s-.012.214-.012.247v.188a1.968,1.968,0,0,1-.009.4c-.009.014,0,.051.021.084s.033.068.016.1a.231.231,0,0,0,0,.136,2.361,2.361,0,0,1,.033.28,3.2,3.2,0,0,0,.061.576.948.948,0,0,1,.035.188A.717.717,0,0,0,.2,9.394a.479.479,0,0,1,.033.129A1.08,1.08,0,0,0,.3,9.84a.436.436,0,0,1,.021.129.319.319,0,0,0,.026.129.878.878,0,0,1,.061.19.77.77,0,0,0,.056.186.722.722,0,0,1,.047.188,1.324,1.324,0,0,0,.056.235c.016.038.045.113.061.165A.464.464,0,0,0,.7,11.2a.579.579,0,0,1,.07.188.788.788,0,0,0,.1.24.374.374,0,0,1,.068.143.2.2,0,0,0,.049.106.807.807,0,0,1,.085.174,1.965,1.965,0,0,0,.256.517.453.453,0,0,1,.08.129.64.64,0,0,0,.094.148,1.268,1.268,0,0,1,.127.2.424.424,0,0,0,.082.124.145.145,0,0,1,.049.08.637.637,0,0,0,.193.275A.1.1,0,0,1,2,13.594a1.059,1.059,0,0,0,.179.228c.2.216.432.467.561.615a.483.483,0,0,0,.153.122.4.4,0,0,1,.141.118.821.821,0,0,0,.174.157.549.549,0,0,1,.118.1.1.1,0,0,0,.061.042.053.053,0,0,1,.045.035.311.311,0,0,0,.12.082.59.59,0,0,1,.16.1.521.521,0,0,0,.157.087.455.455,0,0,1,.157.087.289.289,0,0,0,.141.066.494.494,0,0,1,.15.054.661.661,0,0,0,.282.122.535.535,0,0,1,.178.061,2.456,2.456,0,0,0,.9.211,4.52,4.52,0,0,0,.916.01,1.392,1.392,0,0,1,.176-.033,1.725,1.725,0,0,0,.51-.1.766.766,0,0,1,.19-.056.442.442,0,0,0,.146-.047.433.433,0,0,1,.139-.047.283.283,0,0,0,.122-.059,2.017,2.017,0,0,1,.249-.143,2.311,2.311,0,0,0,.554-.345.362.362,0,0,1,.117-.087,1.484,1.484,0,0,0,.334-.249,2.888,2.888,0,0,0,.265-.282.517.517,0,0,1,.134-.115.193.193,0,0,0,.082-.1.948.948,0,0,1,.216-.275,1.506,1.506,0,0,0,.233-.31,1.269,1.269,0,0,1,.115-.165.752.752,0,0,0,.1-.181.192.192,0,0,1,.061-.1.377.377,0,0,0,.106-.226.371.371,0,0,1,.07-.136.65.65,0,0,0,.085-.155.108.108,0,0,1,.047-.07c.019-.007.033-.045.033-.082s.014-.073.033-.08a.3.3,0,0,0,.07-.141.465.465,0,0,1,.073-.157.121.121,0,0,0,.035-.082A.12.12,0,0,1,10.908,12a.871.871,0,0,0,.1-.284,1.426,1.426,0,0,1,.073-.247c.04-.11.085-.258.1-.329a1.128,1.128,0,0,1,.056-.181.121.121,0,0,0,.014-.087.182.182,0,0,1,.023-.11.59.59,0,0,0,.038-.219,2.079,2.079,0,0,1,.059-.387,4.04,4.04,0,0,0,.082-.482c.014-.132.031-.284.038-.343.014-.1.021-.625.014-.846,0-.059,0-.207,0-.329a2.12,2.12,0,0,0-.016-.364,3.3,3.3,0,0,1-.031-.353,2.37,2.37,0,0,0-.023-.27.748.748,0,0,1-.021-.129A4.365,4.365,0,0,0,11.3,6.4a1.009,1.009,0,0,1-.042-.237.68.68,0,0,0-.035-.2,1.618,1.618,0,0,1-.1-.373,1.245,1.245,0,0,0-.045-.193,2.4,2.4,0,0,1-.1-.319.324.324,0,0,0-.056-.131.151.151,0,0,1-.038-.092.081.081,0,0,0-.021-.061.169.169,0,0,1-.038-.078,1.29,1.29,0,0,0-.07-.195c-.028-.071-.078-.207-.106-.3a.742.742,0,0,0-.1-.211.128.128,0,0,1-.042-.078.182.182,0,0,0-.035-.085.166.166,0,0,1-.035-.082.138.138,0,0,0-.047-.08.155.155,0,0,1-.047-.1.335.335,0,0,0-.082-.146.306.306,0,0,1-.082-.143.311.311,0,0,0-.07-.141.412.412,0,0,1-.07-.113.768.768,0,0,0-.113-.162c-.063-.075-.15-.19-.193-.254s-.089-.129-.1-.141A1.515,1.515,0,0,1,9.449,2.2a.109.109,0,0,0-.056-.063.456.456,0,0,1-.122-.12c-.045-.056-.094-.117-.106-.134s-.054-.068-.092-.117-.08-.087-.1-.087S8.925,1.64,8.9,1.6s-.056-.082-.068-.082A.656.656,0,0,1,8.692,1.4a.778.778,0,0,0-.134-.117.614.614,0,0,1-.2-.148A.1.1,0,0,0,8.3,1.09a.156.156,0,0,1-.068-.056.258.258,0,0,0-.1-.075A.344.344,0,0,1,8.013.867a.427.427,0,0,0-.12-.092A.225.225,0,0,1,7.8.715.14.14,0,0,0,7.734.667.225.225,0,0,1,7.649.621a.22.22,0,0,0-.11-.047.234.234,0,0,1-.12-.059A.247.247,0,0,0,7.306.456a.33.33,0,0,1-.12-.045A.559.559,0,0,0,7.022.348.423.423,0,0,1,6.862.28.436.436,0,0,0,6.71.214,1.941,1.941,0,0,1,6.487.162C6.409.141,6.3.115,6.252.1S6.113.073,6.059.059A.8.8,0,0,0,5.906.033c-.03,0-.2,0-.371-.009S5.2.01,5.171,0A.25.25,0,0,0,5.042.021Z" transform="translate(11.414 0.012)" fill="#f63264"/>
    <path id="Path_1310" data-name="Path 1310" d="M6.32.015a1.587,1.587,0,0,1-.338.023c-.179,0-.345,0-.376.007a.792.792,0,0,0-.153.026C5.4.086,5.313.1,5.261.116S5.1.154,5.026.175A2.058,2.058,0,0,1,4.8.227.43.43,0,0,0,4.65.292.418.418,0,0,1,4.49.36a.558.558,0,0,0-.164.063.328.328,0,0,1-.12.045.246.246,0,0,0-.113.059.237.237,0,0,1-.12.058.224.224,0,0,0-.111.047A.224.224,0,0,1,3.779.68a.14.14,0,0,0-.068.047.226.226,0,0,1-.092.061A.423.423,0,0,0,3.5.88a.345.345,0,0,1-.122.092.252.252,0,0,0-.1.075A.158.158,0,0,1,3.21,1.1a.1.1,0,0,0-.056.04.611.611,0,0,1-.2.148.768.768,0,0,0-.134.118.65.65,0,0,1-.136.117c-.012,0-.042.037-.068.082s-.063.082-.08.082-.059.04-.1.087-.077.1-.092.117-.061.077-.105.134a.458.458,0,0,1-.122.12.109.109,0,0,0-.057.064,1.51,1.51,0,0,1-.193.289c-.009.012-.054.075-.1.141s-.129.179-.193.254a.781.781,0,0,0-.113.162.361.361,0,0,1-.07.113.338.338,0,0,0-.071.141.305.305,0,0,1-.082.143.336.336,0,0,0-.082.146.157.157,0,0,1-.047.1.139.139,0,0,0-.047.08.164.164,0,0,1-.035.082A.184.184,0,0,0,1,3.945a.129.129,0,0,1-.042.078.742.742,0,0,0-.1.211c-.028.092-.078.228-.106.3a1.3,1.3,0,0,0-.071.2A.166.166,0,0,1,.643,4.8a.083.083,0,0,0-.021.061.15.15,0,0,1-.038.092.329.329,0,0,0-.056.132,2.282,2.282,0,0,1-.1.317A1.394,1.394,0,0,0,.387,5.6a1.625,1.625,0,0,1-.1.373.674.674,0,0,0-.035.2,1,1,0,0,1-.042.237,4.351,4.351,0,0,0-.117.646.747.747,0,0,1-.021.129,2.407,2.407,0,0,0-.024.27,3.336,3.336,0,0,1-.03.352A2.093,2.093,0,0,0,0,8.173c0,.122,0,.27,0,.329-.007.221,0,.745.014.845.007.059.024.211.038.343a4.054,4.054,0,0,0,.082.482A2.07,2.07,0,0,1,.2,10.56a.589.589,0,0,0,.038.219.181.181,0,0,1,.023.11.121.121,0,0,0,.014.087,1.121,1.121,0,0,1,.056.181c.017.07.061.218.1.329a1.425,1.425,0,0,1,.073.247.867.867,0,0,0,.1.284.119.119,0,0,1,.016.068.122.122,0,0,0,.035.082.461.461,0,0,1,.073.157.3.3,0,0,0,.071.141c.019.007.033.042.033.08s.014.075.033.082a.109.109,0,0,1,.047.071A.656.656,0,0,0,1,12.852a.368.368,0,0,1,.071.136.375.375,0,0,0,.105.225.191.191,0,0,1,.061.1.765.765,0,0,0,.1.181,1.271,1.271,0,0,1,.115.164,1.517,1.517,0,0,0,.233.31.95.95,0,0,1,.216.275.2.2,0,0,0,.082.1.516.516,0,0,1,.134.115,2.881,2.881,0,0,0,.266.282,1.476,1.476,0,0,0,.333.249.361.361,0,0,1,.117.087,2.328,2.328,0,0,0,.554.345,2,2,0,0,1,.249.143.278.278,0,0,0,.122.059.429.429,0,0,1,.139.047.44.44,0,0,0,.146.047.761.761,0,0,1,.19.057,1.742,1.742,0,0,0,.51.1,1.361,1.361,0,0,1,.176.033,4.476,4.476,0,0,0,.916-.009,2.458,2.458,0,0,0,.9-.212.529.529,0,0,1,.179-.061A.659.659,0,0,0,7.2,15.5a.493.493,0,0,1,.15-.054.292.292,0,0,0,.141-.066.458.458,0,0,1,.157-.087A.517.517,0,0,0,7.8,15.2a.587.587,0,0,1,.16-.1.311.311,0,0,0,.12-.082.053.053,0,0,1,.045-.035.1.1,0,0,0,.061-.042.558.558,0,0,1,.117-.1.829.829,0,0,0,.174-.157.4.4,0,0,1,.141-.118.481.481,0,0,0,.153-.122c.129-.148.359-.4.561-.615a1.056,1.056,0,0,0,.179-.228.1.1,0,0,1,.052-.066.636.636,0,0,0,.193-.275.147.147,0,0,1,.049-.08.421.421,0,0,0,.082-.124,1.282,1.282,0,0,1,.127-.2.635.635,0,0,0,.094-.148.451.451,0,0,1,.08-.129,1.963,1.963,0,0,0,.256-.517.781.781,0,0,1,.085-.174.2.2,0,0,0,.049-.106.378.378,0,0,1,.068-.143.781.781,0,0,0,.1-.24.584.584,0,0,1,.071-.188.469.469,0,0,0,.07-.141c.016-.052.044-.127.061-.164A1.341,1.341,0,0,0,11,10.675a.719.719,0,0,1,.047-.188.772.772,0,0,0,.056-.186.882.882,0,0,1,.061-.19.32.32,0,0,0,.026-.129.439.439,0,0,1,.021-.129,1.072,1.072,0,0,0,.061-.317.469.469,0,0,1,.033-.129.734.734,0,0,0,.035-.176.94.94,0,0,1,.035-.188,3.212,3.212,0,0,0,.061-.575,2.35,2.35,0,0,1,.033-.279.231.231,0,0,0,0-.137.085.085,0,0,1,.014-.1c.019-.03.031-.061.023-.068a.745.745,0,0,1-.012-.209c0-.108,0-.218,0-.244s0-.061,0-.078a2.481,2.481,0,0,0-.009-.322c-.007-.1-.019-.261-.024-.35a2.242,2.242,0,0,0-.028-.235.674.674,0,0,1-.012-.155.943.943,0,0,0-.021-.2,1.33,1.33,0,0,1-.023-.263.336.336,0,0,0-.021-.159c-.014-.007-.026-.061-.026-.118a.728.728,0,0,0-.049-.228.793.793,0,0,1-.049-.23.678.678,0,0,0-.042-.212,1.193,1.193,0,0,1-.059-.218.8.8,0,0,0-.073-.228A.535.535,0,0,1,11,4.257a.17.17,0,0,0-.045-.11.254.254,0,0,1-.061-.134,1.292,1.292,0,0,0-.1-.254.766.766,0,0,1-.08-.221.142.142,0,0,0-.045-.1.527.527,0,0,1-.085-.169.654.654,0,0,0-.1-.195.244.244,0,0,1-.057-.106c0-.052-.066-.179-.091-.179s-.131-.164-.167-.27a.556.556,0,0,0-.122-.185.353.353,0,0,1-.089-.12.234.234,0,0,0-.059-.1.289.289,0,0,1-.059-.094A.137.137,0,0,0,9.8,1.955a1.249,1.249,0,0,1-.235-.3A.123.123,0,0,0,9.5,1.6a.531.531,0,0,1-.136-.129,1.008,1.008,0,0,0-.2-.179.559.559,0,0,1-.146-.141c-.019-.04-.049-.073-.064-.073a.224.224,0,0,1-.087-.059C8.728.884,8.707.868,8.686.868A.148.148,0,0,1,8.62.821.141.141,0,0,0,8.536.774a.256.256,0,0,1-.12-.066,1.009,1.009,0,0,0-.254-.16A.825.825,0,0,1,8.04.473.644.644,0,0,0,7.758.389.225.225,0,0,1,7.664.358,1.341,1.341,0,0,0,7.269.186.145.145,0,0,1,7.187.165a1.235,1.235,0,0,0-.463-.1A.951.951,0,0,1,6.471.034C6.356-.006,6.344-.008,6.32.015Z" transform="translate(27.415 0)" fill="#f63264"/>
    <path id="Path_1311" data-name="Path 1311" d="M4.429.013l-.27.028A2.614,2.614,0,0,0,3.9.091L3.654.148A1.219,1.219,0,0,0,3.431.22L3.283.27a.316.316,0,0,0-.124.061.1.1,0,0,1-.066.031A.212.212,0,0,0,3,.408a.239.239,0,0,1-.124.047.178.178,0,0,0-.124.063,1.565,1.565,0,0,1-.4.265,1.277,1.277,0,0,0-.334.275c-.019.021-.066.066-.1.1s-.1.1-.153.15a1.972,1.972,0,0,0-.35.4c-.016.035-.04.063-.052.063a.929.929,0,0,0-.2.305.346.346,0,0,1-.07.117.346.346,0,0,0-.07.118.348.348,0,0,1-.07.117A.919.919,0,0,0,.83,2.6C.8,2.668.741,2.781.7,2.851A1.991,1.991,0,0,0,.53,3.3a.729.729,0,0,1-.082.19.429.429,0,0,0-.059.176.822.822,0,0,1-.07.218.216.216,0,0,0-.038.157c.012.052,0,.085-.021.106a.12.12,0,0,0-.035.08.684.684,0,0,1-.035.15.323.323,0,0,0-.021.153.4.4,0,0,1-.023.16A.714.714,0,0,0,.107,4.9a.254.254,0,0,1-.023.129.738.738,0,0,0-.033.225A1.168,1.168,0,0,1,.018,5.5,16.948,16.948,0,0,0,.034,7.3,3.5,3.5,0,0,0,.1,7.709a1.255,1.255,0,0,1,.035.275.431.431,0,0,0,.023.167.153.153,0,0,1,.021.1.911.911,0,0,0,.033.2c.019.066.045.167.061.226s.042.165.061.235A.868.868,0,0,1,.368,9.1a.138.138,0,0,0,.026.089.193.193,0,0,1,.033.085.96.96,0,0,0,.094.315.253.253,0,0,1,.033.12.17.17,0,0,0,.047.11.263.263,0,0,1,.061.131.265.265,0,0,0,.047.117.094.094,0,0,1,.033.066.968.968,0,0,0,.115.315.118.118,0,0,1,.026.073.148.148,0,0,0,.031.082.463.463,0,0,1,.063.12,2.168,2.168,0,0,0,.193.4.208.208,0,0,1,.042.1.1.1,0,0,0,.04.073,1.106,1.106,0,0,1,.127.223,1.244,1.244,0,0,0,.139.232.141.141,0,0,1,.047.085A.113.113,0,0,0,1.6,11.9a.494.494,0,0,1,.153.176.623.623,0,0,0,.1.157,1.346,1.346,0,0,1,.153.221.263.263,0,0,0,.082.106.518.518,0,0,1,.117.146,2.072,2.072,0,0,0,.214.258.841.841,0,0,1,.129.15.365.365,0,0,0,.1.1.367.367,0,0,1,.117.132.1.1,0,0,0,.056.063.818.818,0,0,1,.164.143,1.446,1.446,0,0,0,.186.169,2.767,2.767,0,0,1,.381.3.2.2,0,0,0,.1.061.25.25,0,0,1,.11.082.259.259,0,0,0,.108.082.089.089,0,0,1,.061.033.77.77,0,0,0,.176.1,1.26,1.26,0,0,1,.226.138.545.545,0,0,0,.169.1.3.3,0,0,1,.113.063.156.156,0,0,0,.1.033c.035,0,.073.009.08.024a2.806,2.806,0,0,0,.775.282,2.688,2.688,0,0,0,.493.082c.052,0,.155.019.23.031a4.462,4.462,0,0,0,.893-.021,3.219,3.219,0,0,1,.526-.1.124.124,0,0,0,.082-.019.167.167,0,0,1,.075-.026.341.341,0,0,0,.117-.038.977.977,0,0,1,.171-.063.167.167,0,0,0,.089-.037.8.8,0,0,1,.148-.085,2.123,2.123,0,0,0,.251-.136,1.631,1.631,0,0,1,.195-.1.231.231,0,0,0,.1-.075.141.141,0,0,1,.075-.056.388.388,0,0,0,.124-.084,1.542,1.542,0,0,1,.3-.24.615.615,0,0,0,.136-.143c.052-.073.108-.131.124-.131a.325.325,0,0,0,.157-.16,1.546,1.546,0,0,1,.272-.34.655.655,0,0,0,.124-.186.684.684,0,0,1,.12-.176.443.443,0,0,0,.1-.143,2.84,2.84,0,0,1,.2-.395.806.806,0,0,0,.092-.193,1.076,1.076,0,0,1,.078-.2,1.9,1.9,0,0,0,.108-.266c.023-.077.068-.221.1-.317a2.916,2.916,0,0,0,.082-.305,3.929,3.929,0,0,1,.117-.47,1.018,1.018,0,0,0,.031-.218.445.445,0,0,1,.021-.151.278.278,0,0,0,.014-.105.345.345,0,0,1,.028-.143.721.721,0,0,0,.035-.216c0-.092.009-.232.014-.317a14.064,14.064,0,0,0-.016-1.585c-.009-.078-.021-.207-.026-.289a.763.763,0,0,0-.038-.2.2.2,0,0,1-.012-.115.29.29,0,0,0-.012-.134.726.726,0,0,1-.033-.164,1.418,1.418,0,0,0-.042-.223,1.676,1.676,0,0,1-.087-.376.115.115,0,0,0-.021-.075.357.357,0,0,1-.04-.148A.5.5,0,0,0,11,5.978a.215.215,0,0,1-.045-.12.854.854,0,0,0-.047-.2.907.907,0,0,1-.047-.186.831.831,0,0,0-.082-.211.859.859,0,0,1-.082-.2.566.566,0,0,0-.07-.169.625.625,0,0,1-.07-.176.226.226,0,0,0-.047-.106.221.221,0,0,1-.047-.11.581.581,0,0,0-.132-.251.273.273,0,0,1-.042-.11.244.244,0,0,0-.049-.108.1.1,0,0,1-.035-.052,1.426,1.426,0,0,0-.214-.338.15.15,0,0,1-.045-.059.649.649,0,0,0-.07-.139.649.649,0,0,1-.07-.148A.943.943,0,0,0,9.691,3.1c-.066-.092-.136-.2-.157-.24a.191.191,0,0,0-.085-.092.144.144,0,0,1-.07-.078A.868.868,0,0,0,9.3,2.555a5.618,5.618,0,0,0-.505-.6,5.972,5.972,0,0,0-.98-.862A1.079,1.079,0,0,1,7.624.97a.749.749,0,0,0-.157-.1A.119.119,0,0,1,7.4.817a.2.2,0,0,0-.089-.07A1.251,1.251,0,0,1,7.156.655.291.291,0,0,0,7.034.6.564.564,0,0,1,6.87.514.623.623,0,0,0,6.708.432.7.7,0,0,1,6.534.359.385.385,0,0,0,6.362.3.082.082,0,0,1,6.287.284,1.321,1.321,0,0,0,5.909.15C5.85.133,5.761.107,5.709.091A2.581,2.581,0,0,0,5.063.018C4.915.013,4.751.006,4.7,0A1.665,1.665,0,0,0,4.429.013Z" transform="translate(0 12.698)" fill="#f63264"/>
    <path id="Path_1312" data-name="Path 1312" d="M6.738,0S6.571.02,6.376.027a3.009,3.009,0,0,0-.7.078C5.634.118,5.554.142,5.5.158a1.378,1.378,0,0,0-.378.134.083.083,0,0,1-.075.016A.379.379,0,0,0,4.87.368.7.7,0,0,1,4.7.44a.627.627,0,0,0-.162.082A.566.566,0,0,1,4.37.6a.3.3,0,0,0-.122.059A1.25,1.25,0,0,1,4.09.755.2.2,0,0,0,4,.825a.118.118,0,0,1-.063.052.751.751,0,0,0-.157.1,1.08,1.08,0,0,1-.188.124,6,6,0,0,0-.98.862,5.573,5.573,0,0,0-.505.6.854.854,0,0,0-.082.134.145.145,0,0,1-.07.078.19.19,0,0,0-.085.092c-.021.04-.092.148-.157.239A.943.943,0,0,0,1.6,3.3a.56.56,0,0,1-.071.148.813.813,0,0,0-.07.138.15.15,0,0,1-.045.059,1.428,1.428,0,0,0-.214.338.1.1,0,0,1-.035.052.244.244,0,0,0-.049.108.277.277,0,0,1-.042.11A.58.58,0,0,0,.938,4.5a.221.221,0,0,1-.047.11.224.224,0,0,0-.047.106.56.56,0,0,1-.07.176A.642.642,0,0,0,.7,5.066a.857.857,0,0,1-.082.2.835.835,0,0,0-.082.211.894.894,0,0,1-.047.186.862.862,0,0,0-.047.2.216.216,0,0,1-.044.12.5.5,0,0,0-.059.19.358.358,0,0,1-.04.148A.113.113,0,0,0,.28,6.4a1.686,1.686,0,0,1-.087.376A1.427,1.427,0,0,0,.151,7a.716.716,0,0,1-.033.165A.286.286,0,0,0,.107,7.3a.2.2,0,0,1-.012.115.763.763,0,0,0-.037.2c0,.082-.016.211-.026.289A14.04,14.04,0,0,0,.015,9.484c0,.085.012.226.014.317a.72.72,0,0,0,.035.216.345.345,0,0,1,.028.143.276.276,0,0,0,.014.106.449.449,0,0,1,.021.15,1.013,1.013,0,0,0,.031.218,3.933,3.933,0,0,1,.117.47,2.857,2.857,0,0,0,.082.305c.033.1.078.24.1.317a1.9,1.9,0,0,0,.108.266,1.06,1.06,0,0,1,.077.2.8.8,0,0,0,.092.193,2.835,2.835,0,0,1,.2.394.44.44,0,0,0,.1.143.692.692,0,0,1,.12.176.652.652,0,0,0,.125.186,1.547,1.547,0,0,1,.272.34.326.326,0,0,0,.157.16c.016,0,.073.059.124.132a.623.623,0,0,0,.136.143,1.552,1.552,0,0,1,.3.24.415.415,0,0,0,.124.084.141.141,0,0,1,.075.057.232.232,0,0,0,.1.075,1.441,1.441,0,0,1,.195.1,2.377,2.377,0,0,0,.251.136.794.794,0,0,1,.148.084.169.169,0,0,0,.089.037.98.98,0,0,1,.172.063.341.341,0,0,0,.117.038A.173.173,0,0,1,3.611,15a.122.122,0,0,0,.083.019,3.25,3.25,0,0,1,.526.1,4.434,4.434,0,0,0,.893.021c.075-.012.178-.026.23-.031a2.693,2.693,0,0,0,.493-.082,2.82,2.82,0,0,0,.776-.282c.007-.014.045-.024.08-.024a.158.158,0,0,0,.1-.033.3.3,0,0,1,.113-.064.547.547,0,0,0,.169-.1,1.278,1.278,0,0,1,.226-.139.789.789,0,0,0,.176-.1.089.089,0,0,1,.061-.033.26.26,0,0,0,.108-.083.25.25,0,0,1,.11-.082.2.2,0,0,0,.1-.061,2.752,2.752,0,0,1,.38-.3,1.452,1.452,0,0,0,.186-.169.817.817,0,0,1,.164-.143.1.1,0,0,0,.057-.063.366.366,0,0,1,.117-.131.363.363,0,0,0,.1-.1.848.848,0,0,1,.129-.151,2.026,2.026,0,0,0,.214-.258.51.51,0,0,1,.118-.146.265.265,0,0,0,.082-.106,1.374,1.374,0,0,1,.153-.221.61.61,0,0,0,.1-.157.491.491,0,0,1,.153-.176.115.115,0,0,0,.035-.073.141.141,0,0,1,.047-.084,1.236,1.236,0,0,0,.138-.233,1.127,1.127,0,0,1,.127-.223.1.1,0,0,0,.04-.073.206.206,0,0,1,.042-.1,2.159,2.159,0,0,0,.193-.4.468.468,0,0,1,.063-.12.145.145,0,0,0,.031-.082.119.119,0,0,1,.026-.073.969.969,0,0,0,.115-.315.094.094,0,0,1,.033-.066.262.262,0,0,0,.047-.118.266.266,0,0,1,.061-.131.169.169,0,0,0,.047-.11.252.252,0,0,1,.033-.12.966.966,0,0,0,.094-.315.19.19,0,0,1,.033-.085.14.14,0,0,0,.026-.089.869.869,0,0,1,.035-.186c.019-.07.047-.176.061-.235s.043-.16.061-.226a.912.912,0,0,0,.033-.2.155.155,0,0,1,.021-.1.433.433,0,0,0,.024-.167,1.278,1.278,0,0,1,.035-.275,3.465,3.465,0,0,0,.064-.406,17,17,0,0,0,.016-1.8,1.161,1.161,0,0,1-.033-.247.74.74,0,0,0-.033-.225A.256.256,0,0,1,11.3,4.9a.709.709,0,0,0-.038-.209.4.4,0,0,1-.023-.16.327.327,0,0,0-.021-.153.678.678,0,0,1-.035-.15.119.119,0,0,0-.035-.08c-.026-.021-.033-.054-.021-.106a.217.217,0,0,0-.037-.157.823.823,0,0,1-.071-.219.427.427,0,0,0-.059-.176.729.729,0,0,1-.082-.19A1.992,1.992,0,0,0,10.7,2.86c-.037-.07-.094-.183-.127-.247a.919.919,0,0,0-.111-.176.352.352,0,0,1-.07-.118.352.352,0,0,0-.07-.118.341.341,0,0,1-.071-.117.928.928,0,0,0-.2-.305c-.012,0-.035-.028-.052-.064a1.975,1.975,0,0,0-.35-.4C9.6,1.267,9.531,1.2,9.5,1.166s-.082-.078-.1-.1A1.286,1.286,0,0,0,9.061.793a1.562,1.562,0,0,1-.4-.266A.179.179,0,0,0,8.532.464.241.241,0,0,1,8.408.417a.209.209,0,0,0-.1-.047A.1.1,0,0,1,8.246.339.315.315,0,0,0,8.121.278L7.973.229A1.221,1.221,0,0,0,7.75.156C7.706.147,7.6.121,7.5.1A1.982,1.982,0,0,0,7.28.055C7.17.046,6.893.015,6.82,0A.223.223,0,0,0,6.738,0Z" transform="translate(39.525 12.689)" fill="#f63264"/>
    <path id="Path_1313" data-name="Path 1313" d="M19.52,0A4.826,4.826,0,0,1,18.7.1a.613.613,0,0,0-.31.045.369.369,0,0,1-.174.04.367.367,0,0,0-.164.035.454.454,0,0,1-.164.049.556.556,0,0,0-.16.045A.417.417,0,0,1,17.6.352,2.345,2.345,0,0,0,17.1.486c-.11.04-.233.082-.27.092a.563.563,0,0,0-.117.042A.75.75,0,0,1,16.428.7a.154.154,0,0,0-.1.035.1.1,0,0,1-.059.035,1.327,1.327,0,0,0-.207.082,1.343,1.343,0,0,1-.209.082.492.492,0,0,0-.132.047.464.464,0,0,1-.141.047.113.113,0,0,0-.075.035.1.1,0,0,1-.061.035.249.249,0,0,0-.075.019c-.021.012-.1.049-.176.087a1.489,1.489,0,0,0-.24.146.532.532,0,0,1-.124.077.421.421,0,0,0-.117.071.738.738,0,0,1-.113.07.5.5,0,0,0-.1.068,1.657,1.657,0,0,1-.211.134.589.589,0,0,0-.16.12c-.021.031-.047.054-.061.054a.873.873,0,0,0-.16.122c-.073.068-.181.16-.237.2-.089.068-.4.359-.78.719A1.3,1.3,0,0,0,12.7,3.2c-.035.056-.078.1-.094.1-.047,0-.143.115-.207.244a1.387,1.387,0,0,1-.221.287c-.193.2-.294.322-.294.359,0,.014-.016.026-.035.026s-.054.047-.08.106-.056.106-.068.106-.056.056-.094.127a1.6,1.6,0,0,1-.155.216.325.325,0,0,0-.085.134,1.1,1.1,0,0,1-.2.331,2.628,2.628,0,0,0-.348.6.574.574,0,0,1-.1.176.533.533,0,0,0-.08.127,1.638,1.638,0,0,1-.164.308.974.974,0,0,0-.141.308.107.107,0,0,1-.035.068.12.12,0,0,0-.035.08A.185.185,0,0,1,10.232,7,.194.194,0,0,0,10.2,7.1a2.026,2.026,0,0,1-.284.578.621.621,0,0,1-.082.108.308.308,0,0,0-.066.136.93.93,0,0,1-.134.256,1.128,1.128,0,0,0-.115.19.129.129,0,0,1-.031.059.645.645,0,0,0-.075.153.68.68,0,0,1-.108.19.368.368,0,0,0-.068.094.429.429,0,0,1-.068.1,1.459,1.459,0,0,0-.1.148,1.293,1.293,0,0,1-.115.16l-.167.195a.587.587,0,0,0-.1.157.954.954,0,0,1-.275.282c-.012,0-.042.038-.068.082s-.056.082-.066.082a1.515,1.515,0,0,0-.193.167c-.1.091-.218.209-.275.261a.816.816,0,0,0-.132.155.532.532,0,0,1-.132.134,1.342,1.342,0,0,0-.171.148,1.132,1.132,0,0,1-.179.143,1.543,1.543,0,0,0-.186.141c-.094.087-.15.12-.209.12a.212.212,0,0,0-.113.07.254.254,0,0,1-.1.07.477.477,0,0,0-.136.082.622.622,0,0,1-.132.082.352.352,0,0,0-.106.075,1.226,1.226,0,0,1-.319.233,1.716,1.716,0,0,0-.381.294.063.063,0,0,1-.047.033.876.876,0,0,0-.329.235c-.023.038-.061.071-.08.071a.766.766,0,0,0-.2.164,1.171,1.171,0,0,1-.186.165,1.65,1.65,0,0,0-.225.2,1.662,1.662,0,0,1-.226.2,8.726,8.726,0,0,0-.773.794c-.038.054-.085.1-.108.1a.544.544,0,0,0-.214.249c0,.016-.035.059-.08.091a1.025,1.025,0,0,0-.179.211.572.572,0,0,1-.141.165.139.139,0,0,0-.068.08,1.081,1.081,0,0,1-.15.2,1.243,1.243,0,0,0-.251.317.265.265,0,0,1-.056.092.493.493,0,0,0-.082.155.368.368,0,0,1-.073.129,1.154,1.154,0,0,0-.188.3.424.424,0,0,1-.07.113c-.014.007-.024.047-.024.085s-.014.075-.035.082a.215.215,0,0,0-.063.113.483.483,0,0,1-.047.122c-.009.014-.047.078-.08.141a.973.973,0,0,1-.106.165.177.177,0,0,0-.045.1.326.326,0,0,1-.059.139.32.32,0,0,0-.059.122.168.168,0,0,1-.035.08.192.192,0,0,0-.035.1.309.309,0,0,1-.054.129,2.694,2.694,0,0,0-.132.27c-.042.1-.1.23-.12.282a1.588,1.588,0,0,0-.106.338,1.9,1.9,0,0,1-.108.27,1.023,1.023,0,0,0-.092.23.235.235,0,0,1-.038.1.578.578,0,0,0-.049.193.541.541,0,0,1-.054.195.368.368,0,0,0-.054.129,1.719,1.719,0,0,1-.049.2c-.021.07-.045.169-.054.218a.229.229,0,0,1-.033.1.113.113,0,0,0-.021.078.147.147,0,0,1-.021.085.357.357,0,0,0-.033.141c-.007.063-.026.185-.04.27S.112,21,.1,21.087c-.023.3-.056.7-.068.775A9.592,9.592,0,0,0,.013,23.2c.007.1.012.235.012.308a.723.723,0,0,0,.026.2.907.907,0,0,1,.033.244,2.707,2.707,0,0,0,.056.411,2.936,2.936,0,0,1,.1.529.142.142,0,0,0,.035.094A.073.073,0,0,1,.3,25.06a.173.173,0,0,0,.019.108,1.527,1.527,0,0,1,.075.242,1.8,1.8,0,0,0,.073.254.4.4,0,0,1,.033.129.185.185,0,0,0,.035.1A.221.221,0,0,1,.565,26a.849.849,0,0,0,.129.324c.016.033.08.158.141.275a1.366,1.366,0,0,0,.132.23.678.678,0,0,1,.115.237.1.1,0,0,0,.042.061.312.312,0,0,1,.07.089.856.856,0,0,0,.16.247.19.19,0,0,1,.056.085.742.742,0,0,0,.113.171c.061.078.132.174.155.214a1.145,1.145,0,0,0,.129.153.728.728,0,0,1,.124.16.361.361,0,0,0,.113.117c.038.021.07.049.07.061a.976.976,0,0,0,.275.259.107.107,0,0,1,.063.049.258.258,0,0,0,.1.08,1.049,1.049,0,0,1,.19.141.549.549,0,0,0,.164.113.567.567,0,0,1,.155.073c.052.031.176.1.277.148a1.97,1.97,0,0,1,.265.148.283.283,0,0,0,.113.061.136.136,0,0,1,.075.047.139.139,0,0,0,.08.047.166.166,0,0,1,.082.035.177.177,0,0,0,.08.035.738.738,0,0,1,.16.059.728.728,0,0,0,.157.059.211.211,0,0,1,.087.047.268.268,0,0,0,.146.047.163.163,0,0,1,.1.021.208.208,0,0,0,.1.031.929.929,0,0,1,.195.061A1.66,1.66,0,0,0,5.7,30.1c.143,0,.327.021.411.033a2.615,2.615,0,0,0,.352.026.764.764,0,0,1,.228.024.4.4,0,0,0,.167.031.642.642,0,0,1,.164.023c.028.016.853.021,1.062,0a1.007,1.007,0,0,0,.188-.033.189.189,0,0,1,.108,0,.1.1,0,0,0,.082,0,.2.2,0,0,1,.092-.021.137.137,0,0,0,.082-.021,1.025,1.025,0,0,1,.352-.056.444.444,0,0,0,.153-.026.268.268,0,0,1,.136-.016.68.68,0,0,0,.211-.031l.216-.063a1.164,1.164,0,0,0,.444-.167.239.239,0,0,1,.124-.042.241.241,0,0,0,.129-.047.228.228,0,0,1,.113-.047.15.15,0,0,0,.094-.047.264.264,0,0,1,.12-.061.2.2,0,0,0,.106-.049.923.923,0,0,1,.381-.164.338.338,0,0,0,.15-.054.233.233,0,0,1,.12-.047.9.9,0,0,0,.322-.1,1.085,1.085,0,0,1,.327-.115.293.293,0,0,0,.12-.042.878.878,0,0,1,.176-.073,1.64,1.64,0,0,0,.223-.085.994.994,0,0,1,.209-.066.339.339,0,0,0,.129-.047.5.5,0,0,1,.263-.087.354.354,0,0,0,.132-.035.93.93,0,0,1,.369-.129.283.283,0,0,0,.167-.059.453.453,0,0,1,.27-.1.575.575,0,0,0,.153-.059.326.326,0,0,1,.136-.042.259.259,0,0,0,.127-.045.405.405,0,0,1,.167-.063.79.79,0,0,0,.174-.047.371.371,0,0,1,.146-.033,3.522,3.522,0,0,0,.59-.12,2.294,2.294,0,0,1,.446-.089,1.26,1.26,0,0,0,.211-.047.615.615,0,0,1,.3-.063,2.065,2.065,0,0,0,.639-.141.553.553,0,0,1,.176-.03.8.8,0,0,0,.209-.035.587.587,0,0,1,.153-.038.128.128,0,0,0,.078-.026.415.415,0,0,1,.174-.031,1.4,1.4,0,0,0,.435-.087.807.807,0,0,1,.183-.021.432.432,0,0,0,.157-.026,2.148,2.148,0,0,1,.632-.066c.228.012.806.012,1.034,0a2.148,2.148,0,0,1,.632.066.432.432,0,0,0,.157.026.807.807,0,0,1,.183.021,1.4,1.4,0,0,0,.435.087.415.415,0,0,1,.174.031.128.128,0,0,0,.078.026.587.587,0,0,1,.153.038.8.8,0,0,0,.209.035.541.541,0,0,1,.176.03,2.065,2.065,0,0,0,.639.141.615.615,0,0,1,.3.063,1.32,1.32,0,0,0,.211.047,2.294,2.294,0,0,1,.446.089,3.523,3.523,0,0,0,.59.12.371.371,0,0,1,.146.033.791.791,0,0,0,.174.047.405.405,0,0,1,.167.063.259.259,0,0,0,.127.045.316.316,0,0,1,.136.042.608.608,0,0,0,.153.059.453.453,0,0,1,.27.1.278.278,0,0,0,.174.059.432.432,0,0,1,.16.035,1.054,1.054,0,0,0,.341.129.512.512,0,0,1,.256.087.339.339,0,0,0,.129.047.954.954,0,0,1,.209.066,1.766,1.766,0,0,0,.223.085.824.824,0,0,1,.176.073.305.305,0,0,0,.12.042,1.085,1.085,0,0,1,.327.115.9.9,0,0,0,.322.1.233.233,0,0,1,.12.047.338.338,0,0,0,.15.054.923.923,0,0,1,.381.164.2.2,0,0,0,.106.049.264.264,0,0,1,.12.061.15.15,0,0,0,.094.047.228.228,0,0,1,.113.047.24.24,0,0,0,.129.047.239.239,0,0,1,.125.042,1.193,1.193,0,0,0,.456.169l.193.059a.78.78,0,0,0,.223.033.268.268,0,0,1,.136.016A.457.457,0,0,0,31,30.1a1.025,1.025,0,0,1,.352.056.137.137,0,0,0,.082.021.2.2,0,0,1,.092.021.1.1,0,0,0,.082,0,.189.189,0,0,1,.108,0,1.087,1.087,0,0,0,.188.033c.209.016,1.034.012,1.062,0a.642.642,0,0,1,.164-.023.4.4,0,0,0,.167-.031.764.764,0,0,1,.228-.024,2.616,2.616,0,0,0,.352-.026c.085-.012.27-.028.411-.033A1.66,1.66,0,0,0,35,29.985a.93.93,0,0,1,.195-.061.208.208,0,0,0,.1-.031.163.163,0,0,1,.1-.021.268.268,0,0,0,.146-.047.211.211,0,0,1,.087-.047.726.726,0,0,0,.157-.059.738.738,0,0,1,.16-.059.177.177,0,0,0,.08-.035.166.166,0,0,1,.082-.035.138.138,0,0,0,.08-.047.136.136,0,0,1,.075-.047.283.283,0,0,0,.113-.061,1.967,1.967,0,0,1,.265-.148c.1-.052.226-.117.277-.148a.568.568,0,0,1,.155-.073.55.55,0,0,0,.164-.113,1.046,1.046,0,0,1,.19-.141.258.258,0,0,0,.1-.08.107.107,0,0,1,.063-.049.976.976,0,0,0,.275-.259c0-.012.033-.04.07-.061a.361.361,0,0,0,.113-.117.725.725,0,0,1,.124-.16,1.148,1.148,0,0,0,.129-.153c.024-.04.094-.136.155-.214a.742.742,0,0,0,.113-.171.19.19,0,0,1,.056-.085.856.856,0,0,0,.16-.247.311.311,0,0,1,.071-.089.1.1,0,0,0,.042-.061.678.678,0,0,1,.115-.237,1.367,1.367,0,0,0,.132-.23c.061-.117.124-.242.141-.275A.849.849,0,0,0,39.418,26a.221.221,0,0,1,.035-.113.185.185,0,0,0,.035-.1.4.4,0,0,1,.033-.129,1.8,1.8,0,0,0,.073-.254,1.53,1.53,0,0,1,.075-.242.173.173,0,0,0,.019-.108.073.073,0,0,1,.024-.073.142.142,0,0,0,.035-.094,2.939,2.939,0,0,1,.1-.529,2.706,2.706,0,0,0,.056-.411.907.907,0,0,1,.033-.244.723.723,0,0,0,.026-.2c0-.073,0-.211.012-.308a9.6,9.6,0,0,0-.023-1.339c-.012-.08-.045-.475-.068-.775-.007-.085-.024-.221-.038-.305s-.033-.207-.04-.27a.356.356,0,0,0-.033-.141.147.147,0,0,1-.021-.085.113.113,0,0,0-.021-.078.228.228,0,0,1-.033-.1c-.009-.049-.033-.148-.054-.218a1.73,1.73,0,0,1-.049-.2.368.368,0,0,0-.054-.129.541.541,0,0,1-.054-.195.578.578,0,0,0-.049-.193.235.235,0,0,1-.038-.1,1.023,1.023,0,0,0-.092-.23,1.9,1.9,0,0,1-.108-.27,1.588,1.588,0,0,0-.106-.338c-.023-.052-.078-.178-.12-.282a2.688,2.688,0,0,0-.132-.27.309.309,0,0,1-.054-.129.192.192,0,0,0-.035-.1.168.168,0,0,1-.035-.08.32.32,0,0,0-.059-.122.326.326,0,0,1-.059-.139.177.177,0,0,0-.045-.1.971.971,0,0,1-.106-.165c-.033-.063-.07-.127-.08-.141a.483.483,0,0,1-.047-.122.215.215,0,0,0-.063-.113c-.021-.007-.035-.042-.035-.082s-.009-.078-.023-.085a.424.424,0,0,1-.07-.113,1.154,1.154,0,0,0-.188-.3.367.367,0,0,1-.073-.129.493.493,0,0,0-.082-.155.265.265,0,0,1-.056-.092,1.243,1.243,0,0,0-.251-.317,1.08,1.08,0,0,1-.15-.2.139.139,0,0,0-.068-.08.571.571,0,0,1-.141-.165,1.025,1.025,0,0,0-.179-.211c-.045-.033-.08-.075-.08-.091a.544.544,0,0,0-.214-.249c-.023,0-.07-.044-.108-.1a8.73,8.73,0,0,0-.773-.794,1.66,1.66,0,0,1-.226-.2,1.648,1.648,0,0,0-.226-.2,1.172,1.172,0,0,1-.186-.165.826.826,0,0,0-.2-.164c-.019,0-.056-.033-.08-.071a.876.876,0,0,0-.329-.235.063.063,0,0,1-.047-.033,1.717,1.717,0,0,0-.381-.294,1.226,1.226,0,0,1-.319-.233.352.352,0,0,0-.106-.075.622.622,0,0,1-.132-.082.478.478,0,0,0-.136-.082.255.255,0,0,1-.1-.07.212.212,0,0,0-.113-.07c-.059,0-.115-.033-.209-.12a1.3,1.3,0,0,0-.183-.139,1.128,1.128,0,0,1-.179-.146,1.346,1.346,0,0,0-.171-.148.509.509,0,0,1-.134-.134.815.815,0,0,0-.132-.155c-.056-.052-.179-.169-.275-.261a1.514,1.514,0,0,0-.193-.167c-.009,0-.038-.038-.066-.082s-.056-.082-.068-.082a.954.954,0,0,1-.275-.282.587.587,0,0,0-.1-.157l-.167-.195a1.289,1.289,0,0,1-.115-.16,1.468,1.468,0,0,0-.1-.148.429.429,0,0,1-.068-.1.368.368,0,0,0-.068-.094.681.681,0,0,1-.108-.19.642.642,0,0,0-.075-.153.129.129,0,0,1-.031-.059,1.13,1.13,0,0,0-.115-.19.93.93,0,0,1-.134-.256.309.309,0,0,0-.066-.136.621.621,0,0,1-.082-.108,2.025,2.025,0,0,1-.284-.578A.194.194,0,0,0,29.752,7a.185.185,0,0,1-.035-.094.12.12,0,0,0-.035-.08.107.107,0,0,1-.035-.068.974.974,0,0,0-.141-.308,1.636,1.636,0,0,1-.164-.308.534.534,0,0,0-.08-.127.575.575,0,0,1-.1-.176,2.629,2.629,0,0,0-.348-.6,1.1,1.1,0,0,1-.2-.331.325.325,0,0,0-.085-.134,1.608,1.608,0,0,1-.155-.216c-.038-.07-.08-.127-.094-.127s-.042-.047-.068-.106-.061-.106-.08-.106S28.1,4.21,28.1,4.2c0-.038-.1-.16-.294-.359a1.475,1.475,0,0,1-.221-.287c-.063-.129-.16-.244-.207-.244-.016,0-.059-.045-.094-.1a1.3,1.3,0,0,0-.186-.216c-.376-.359-.691-.651-.78-.719-.056-.045-.164-.136-.237-.2a.873.873,0,0,0-.16-.122c-.014,0-.04-.023-.061-.054a.589.589,0,0,0-.16-.12,1.659,1.659,0,0,1-.211-.134.5.5,0,0,0-.1-.068.743.743,0,0,1-.113-.07.421.421,0,0,0-.117-.071.532.532,0,0,1-.125-.077,1.487,1.487,0,0,0-.24-.146c-.075-.037-.155-.075-.176-.087a.25.25,0,0,0-.075-.019.1.1,0,0,1-.061-.035.113.113,0,0,0-.075-.035A.463.463,0,0,1,24.262.98a.492.492,0,0,0-.132-.047A1.344,1.344,0,0,1,23.922.85a1.329,1.329,0,0,0-.207-.082.1.1,0,0,1-.059-.035.154.154,0,0,0-.1-.035A.75.75,0,0,1,23.269.62a.565.565,0,0,0-.117-.042c-.038-.009-.16-.052-.27-.092a2.345,2.345,0,0,0-.493-.134A.417.417,0,0,1,22.259.31.556.556,0,0,0,22.1.265a.453.453,0,0,1-.164-.049A.367.367,0,0,0,21.77.181.369.369,0,0,1,21.6.141.613.613,0,0,0,21.286.1a4.92,4.92,0,0,1-.531-.045c-.155-.024-.3-.04-.329-.04l-.157,0a.493.493,0,0,0-.176.037.173.173,0,0,1-.2,0,.389.389,0,0,0-.167-.031.579.579,0,0,1-.146-.014A.111.111,0,0,0,19.52,0Z" transform="translate(5.179 17.271)" fill="#f63264"/>
  </g>
</svg>
